<?xml version="1.0" encoding="utf-8"?>
<!-- Generator: Adobe Illustrator 27.6.1, SVG Export Plug-In . SVG Version: 6.00 Build 0)  -->
<svg version="1.1" id="Layer_1" xmlns="http://www.w3.org/2000/svg" xmlns:xlink="http://www.w3.org/1999/xlink" x="0px" y="0px"
	 viewBox="0 0 291.3 63.9" style="enable-background:new 0 0 291.3 63.9;" xml:space="preserve">
<style type="text/css">
	.st0{fill:#8DC63F;}
</style>
<g>
	<g>
		<g>
			<path d="M18.1,45.2c-3.8,0-6.7-0.8-8.2-1.8V8.5h5.6v12.1c1.2-0.6,2.5-1,4.9-1c5.8,0,9.8,4.8,9.8,12.2
				C30.1,40,25.8,45.2,18.1,45.2z M18.8,22.8c-1.5,0-2.5,0.2-3.4,0.7v17.7c0.7,0.3,1.8,0.5,2.8,0.5c4.4,0,6.3-3.8,6.3-9.7
				C24.5,26.8,23,22.8,18.8,22.8z"/>
			<path d="M42.3,45.2c-6.8,0-10.1-2.8-10.1-7.6c0-6.6,6.3-8.4,13.9-9.2v-1.3c0-3.2-2-4.1-4.9-4.1c-2.4,0-4.7,0.8-6.3,1.5l-1.3-3.2
				c1.6-0.8,4.6-1.9,8.5-1.9c5.1,0,9.2,2.2,9.2,8.6v15.4C49.3,44.4,46.2,45.2,42.3,45.2z M46,31.1c-5.3,0.6-8.6,1.8-8.6,6.3
				c0,3.2,2,4.6,5.2,4.6c1.3,0,2.5-0.3,3.4-0.7V31.1z"/>
			<path d="M69.4,44.7V27.1c0-2-0.9-4.2-4.5-4.2c-1.8,0-2.8,0.3-3.9,0.7v21.1h-5.6V21.2c2.3-1.1,5.5-1.8,9.7-1.8
				c7.4,0,9.9,3.6,9.9,7.6v17.7H69.4z"/>
			<path d="M89.9,45.2c-7.3,0-11.6-4.7-11.6-12.6c0-8.1,4.4-13,10.9-13c1.4,0,2.6,0.1,3.7,0.5V8.5h5.6v34.9
				C96.6,44.5,93.8,45.2,89.9,45.2z M92.9,23.1c-0.8-0.2-1.6-0.3-2.5-0.3c-4.9,0-6.6,4.2-6.6,9.5c0,5.6,1.8,9.3,6.1,9.3
				c1.4,0,2.3-0.1,2.9-0.6V23.1z"/>
			<path d="M107.2,34.3c0.5,4.6,2.7,6.9,6.8,6.9c2.8,0,4.9-0.7,6.3-1.4l1.3,3.6c-1.7,1-4.4,1.8-8.2,1.8c-7.1,0-11.6-4.6-11.6-13
				c0-8.1,4.1-12.8,10.6-12.8c6.6,0,10.2,4.4,10,12.7L107.2,34.3z M112.2,22.8c-3.3,0-5.5,2.7-5.4,8.6l10.3-1.6
				C117.1,24.8,115.3,22.8,112.2,22.8z"/>
			<path d="M128.7,15.5c-1.7,0-3.1-1.2-3.1-2.8c0-1.6,1.4-2.8,3.1-2.8c1.7,0,3.1,1.2,3.1,2.8C131.8,14.3,130.4,15.5,128.7,15.5z
				 M125.9,44.7V19.8h5.6v24.9H125.9z"/>
			<path d="M146.7,23.5c-1.9-0.6-4-0.6-5.3,0.2v21h-5.7V21.2c2.6-1.2,5.7-1.9,12-1.7L146.7,23.5z"/>
			<path d="M157.8,45.2c-6.8,0-10.2-2.8-10.2-7.6c0-6.6,6.3-8.4,13.9-9.2v-1.3c0-3.2-2-4.1-4.9-4.1c-2.4,0-4.7,0.8-6.2,1.5l-1.3-3.2
				c1.6-0.8,4.6-1.9,8.6-1.9c5.1,0,9.2,2.2,9.2,8.6v15.4C164.8,44.4,161.6,45.2,157.8,45.2z M161.5,31.1c-5.3,0.6-8.6,1.8-8.6,6.3
				c0,3.2,2,4.6,5.2,4.6c1.3,0,2.5-0.3,3.4-0.7V31.1z"/>
		</g>
	</g>
	<g>
		<g>
			<path class="st0" d="M182.2,55.4c-3.8,0-7.1-0.7-9-1.9l1.6-3.9c1.5,0.8,3.9,1.6,6.3,1.6c4.4,0,6-2.4,6-5.9v-1.7
				c-1,0.6-2.7,1-4.9,1c-6.3,0-10.6-4.9-10.6-12.8c0-8.5,4.3-14.2,12.7-14.2c3.8,0,6.9,0.8,8.5,1.9v25.2
				C193,51.8,188.7,55.4,182.2,55.4z M187.2,21.8c-0.8-0.4-1.8-0.6-3.1-0.6c-4.6,0-6.5,3.8-6.5,10.4c0,6.4,1.8,9.7,6.3,9.7
				c1.3,0,2.5-0.3,3.3-0.8V21.8z"/>
			<path class="st0" d="M208.8,22.1c-2-0.7-4.2-0.6-5.5,0.2v22.2h-5.9V19.6c2.7-1.3,6-2,12.7-1.9L208.8,22.1z"/>
			<path class="st0" d="M221.1,44.9c-7.4,0-10.9-5.8-10.9-13.6c0-7.8,3.6-13.6,10.9-13.6c7.4,0,10.9,5.8,10.9,13.6
				C232,39.1,228.4,44.9,221.1,44.9z M221.1,21.4c-4.2,0-5,4.8-5,9.8c0,5,0.9,9.6,5,9.6c4.2,0,5-4.6,5-9.6
				C226.1,26.2,225.3,21.4,221.1,21.4z"/>
			<path class="st0" d="M245.6,45c-7,0-10.2-3.1-10.2-8.9V18.2h5.9v18.3c0,2.5,1.4,4.4,4.4,4.4c1.7,0,2.9-0.3,3.9-0.9V18.2h5.9v24.7
				C253.5,44,250.2,45,245.6,45z"/>
			<path class="st0" d="M269.9,44.8c-1.5,0-3.1-0.2-4-0.6v10.7h-5.9V19.6c2-1.1,4.9-1.9,9.1-1.9c7.6,0,12.3,4.9,12.3,13.3
				C281.4,39.5,276.7,44.8,269.9,44.8z M269,21.2c-1.3,0-2.2,0.2-3.1,0.5v19c0.7,0.3,1.6,0.4,2.6,0.4c4.7,0,7-3.7,7-10
				C275.5,24.9,273.8,21.2,269,21.2z"/>
		</g>
	</g>
</g>
</svg>
